<?xml version="1.0" encoding="UTF-8"?>
<!-- Generated by Pixelmator Pro 3.6.14 -->
<svg width="97" height="118" viewBox="0 0 97 118" xmlns="http://www.w3.org/2000/svg">
    <path id="Path-copy-60" fill="#261d2a" fill-rule="evenodd" stroke="none" d="M 33.129963 8.578064 C 42.584145 8.578064 53.279121 17.478607 53.279121 17.478607 C 54.23333 18.442596 55.008423 19.686646 55.601143 21.135864 L 58.896919 16.615601 C 58.945763 16.550446 59.010902 16.524414 59.072777 16.524414 C 59.232353 16.524414 59.382164 16.703522 59.268181 16.885895 L 56.092903 21.233582 C 56.092903 21.285675 56.073364 21.334534 56.044052 21.376862 L 55.812828 21.686249 C 56.053825 22.379944 56.262253 23.09314 56.415314 23.816132 C 56.434853 23.7966 56.454399 23.786835 56.473938 23.777069 L 64.791527 16.241058 C 64.843636 16.195465 64.899002 16.175934 64.951111 16.175934 C 65.133484 16.175934 65.283287 16.416931 65.104172 16.573242 L 56.526047 24.360016 C 56.656311 25.092773 56.747498 25.825531 56.806122 26.558258 L 65.88578 22.067291 L 65.905319 22.057526 C 65.941139 22.044495 65.976967 22.037994 66.006279 22.037994 C 66.234245 22.037994 66.335205 22.373413 66.087692 22.480896 L 56.975464 26.991425 C 56.955925 27.030487 56.916847 27.059814 56.877769 27.079346 L 56.835426 27.102142 C 56.965698 29.883362 56.604202 32.654816 55.780258 35.305756 C 55.871445 37.66684 54.184479 42.138306 50.338326 44.365875 C 48.133545 45.652252 45.678001 46.446899 44.323212 46.446899 C 44.108276 46.446899 43.922638 46.427368 43.769577 46.38501 C 43.668617 46.407806 43.567665 46.427368 43.466705 46.437134 L 43.427628 46.437134 C 43.336433 46.437134 43.245247 46.375244 43.215942 46.287323 C 42.382225 46.456665 41.538742 46.586945 40.665947 46.707428 C 40.652924 46.779083 40.613838 46.837708 40.545448 46.880035 C 40.512886 47.000519 40.473801 47.121033 40.444496 47.251312 C 37.620941 56.510071 41.408478 61.10202 46.449837 65.07843 C 48.65136 66.384369 51.071083 67.960602 53.692719 69.849487 C 53.793678 69.921143 53.813217 70.061188 53.74157 70.171906 C 53.702492 70.220764 53.630844 70.263092 53.562454 70.263092 C 53.510345 70.263092 53.461494 70.253326 53.422417 70.220764 C 52.927399 69.869019 52.445404 69.530334 51.97319 69.198151 L 51.97319 69.198151 C 56.887535 72.962891 61.254761 77.434326 60.694611 85.911499 C 59.515686 103.49765 54.037933 104.826385 52.403069 104.826385 C 52.113228 104.826385 51.943878 104.784027 51.943878 104.784027 L 51.943878 104.784027 C 51.943878 104.784027 52.31514 105.008759 53.881607 105.008759 C 56.226425 105.008759 61.254761 104.510468 71.74131 102.022369 C 92.45388 97.121033 64.830612 78.085663 64.830612 63.352386 C 64.830612 49.267181 76.606812 39.816284 86.497391 39.816284 C 86.953323 39.816284 87.406006 39.835815 87.855431 39.878143 C 97.980484 40.790009 87.392982 42.177368 80.482277 59.213135 C 73.581345 76.248901 96.59314 91.897308 80.019829 104.324829 C 71.6371 110.613525 58.665688 113.130951 46.10463 113.130951 C 33.826893 113.130951 21.943222 110.724243 15.120449 107.086517 C 1.318584 99.723145 17.882126 40.80304 17.882126 40.80304 L 18.064499 40.711853 C 16.064892 33.107483 16.677147 18.019226 17.442471 17.247375 C 17.517376 17.172485 17.631359 17.136658 17.777912 17.136658 C 19.39323 17.136658 25.001255 21.262878 26.815235 21.262878 C 26.899906 21.262878 26.978069 21.253113 27.043201 21.233582 C 28.68132 20.761353 37.350632 15.137054 37.350632 15.137054 C 37.350632 15.137054 31.967323 8.578064 33.129963 8.578064 Z"/>
    <path id="Path-copy-59" fill="none" stroke="#ffffff" stroke-width="8" stroke-linejoin="round" d="M 33.129963 8.578064 C 42.584145 8.578064 53.279121 17.478607 53.279121 17.478607 C 54.23333 18.442596 55.008423 19.686646 55.601143 21.135864 L 58.896919 16.615601 C 58.945763 16.550446 59.010902 16.524414 59.072777 16.524414 C 59.232353 16.524414 59.382164 16.703522 59.268181 16.885895 L 56.092903 21.233582 C 56.092903 21.285675 56.073364 21.334534 56.044052 21.376862 L 55.812828 21.686249 C 56.053825 22.379944 56.262253 23.09314 56.415314 23.816132 C 56.434853 23.7966 56.454399 23.786835 56.473938 23.777069 L 64.791527 16.241058 C 64.843636 16.195465 64.899002 16.175934 64.951111 16.175934 C 65.133484 16.175934 65.283287 16.416931 65.104172 16.573242 L 56.526047 24.360016 C 56.656311 25.092773 56.747498 25.825531 56.806122 26.558258 L 65.88578 22.067291 L 65.905319 22.057526 C 65.941139 22.044495 65.976967 22.037994 66.006279 22.037994 C 66.234245 22.037994 66.335205 22.373413 66.087692 22.480896 L 56.975464 26.991425 C 56.955925 27.030487 56.916847 27.059814 56.877769 27.079346 L 56.835426 27.102142 C 56.965698 29.883362 56.604202 32.654816 55.780258 35.305756 C 55.871445 37.66684 54.184479 42.138306 50.338326 44.365875 C 48.133545 45.652252 45.678001 46.446899 44.323212 46.446899 C 44.108276 46.446899 43.922638 46.427368 43.769577 46.38501 C 43.668617 46.407806 43.567665 46.427368 43.466705 46.437134 L 43.427628 46.437134 C 43.336433 46.437134 43.245247 46.375244 43.215942 46.287323 C 42.382225 46.456665 41.538742 46.586945 40.665947 46.707428 C 40.652924 46.779083 40.613838 46.837708 40.545448 46.880035 C 40.512886 47.000519 40.473801 47.121033 40.444496 47.251312 C 37.620941 56.510071 41.408478 61.10202 46.449837 65.07843 C 48.65136 66.384369 51.071083 67.960602 53.692719 69.849487 C 53.793678 69.921143 53.813217 70.061188 53.74157 70.171906 C 53.702492 70.220764 53.630844 70.263092 53.562454 70.263092 C 53.510345 70.263092 53.461494 70.253326 53.422417 70.220764 C 52.927399 69.869019 52.445404 69.530334 51.97319 69.198151 L 51.97319 69.198151 C 56.887535 72.962891 61.254761 77.434326 60.694611 85.911499 C 59.515686 103.49765 54.037933 104.826385 52.403069 104.826385 C 52.113228 104.826385 51.943878 104.784027 51.943878 104.784027 L 51.943878 104.784027 C 51.943878 104.784027 52.31514 105.008759 53.881607 105.008759 C 56.226425 105.008759 61.254761 104.510468 71.74131 102.022369 C 92.45388 97.121033 64.830612 78.085663 64.830612 63.352386 C 64.830612 49.267181 76.606812 39.816284 86.497391 39.816284 C 86.953323 39.816284 87.406006 39.835815 87.855431 39.878143 C 97.980484 40.790009 87.392982 42.177368 80.482277 59.213135 C 73.581345 76.248901 96.59314 91.897308 80.019829 104.324829 C 71.6371 110.613525 58.665688 113.130951 46.10463 113.130951 C 33.826893 113.130951 21.943222 110.724243 15.120449 107.086517 C 1.318584 99.723145 17.882126 40.80304 17.882126 40.80304 L 18.064499 40.711853 C 16.064892 33.107483 16.677147 18.019226 17.442471 17.247375 C 17.517376 17.172485 17.631359 17.136658 17.777912 17.136658 C 19.39323 17.136658 25.001255 21.262878 26.815235 21.262878 C 26.899906 21.262878 26.978069 21.253113 27.043201 21.233582 C 28.68132 20.761353 37.350632 15.137054 37.350632 15.137054 C 37.350632 15.137054 31.967323 8.578064 33.129963 8.578064 Z"/>
    <path id="Path-copy-58" fill="#261d2a" fill-rule="evenodd" stroke="none" d="M 33.129963 6.578064 C 42.584145 6.578064 53.279121 15.478607 53.279121 15.478607 C 54.23333 16.442596 55.008423 17.686646 55.601143 19.135864 L 58.896919 14.615601 C 58.945763 14.550446 59.010902 14.524414 59.072777 14.524414 C 59.232353 14.524414 59.382164 14.703522 59.268181 14.885895 L 56.092903 19.233582 C 56.092903 19.285675 56.073364 19.334534 56.044052 19.376862 L 55.812828 19.686249 C 56.053825 20.379944 56.262253 21.09314 56.415314 21.816132 C 56.434853 21.7966 56.454399 21.786835 56.473938 21.777069 L 64.791527 14.241058 C 64.843636 14.195465 64.899002 14.175934 64.951111 14.175934 C 65.133484 14.175934 65.283287 14.416931 65.104172 14.573242 L 56.526047 22.360016 C 56.656311 23.092773 56.747498 23.825531 56.806122 24.558258 L 65.88578 20.067291 L 65.905319 20.057526 C 65.941139 20.044495 65.976967 20.037994 66.006279 20.037994 C 66.234245 20.037994 66.335205 20.373413 66.087692 20.480896 L 56.975464 24.991425 C 56.955925 25.030487 56.916847 25.059814 56.877769 25.079346 L 56.835426 25.102142 C 56.965698 27.883362 56.604202 30.654816 55.780258 33.305756 C 55.871445 35.66684 54.184479 40.138306 50.338326 42.365875 C 48.133545 43.652252 45.678001 44.446899 44.323212 44.446899 C 44.108276 44.446899 43.922638 44.427368 43.769577 44.38501 C 43.668617 44.407806 43.567665 44.427368 43.466705 44.437134 L 43.427628 44.437134 C 43.336433 44.437134 43.245247 44.375244 43.215942 44.287323 C 42.382225 44.456665 41.538742 44.586945 40.665947 44.707428 C 40.652924 44.779083 40.613838 44.837708 40.545448 44.880035 C 40.512886 45.000519 40.473801 45.121033 40.444496 45.251312 C 37.620941 54.510071 41.408478 59.10202 46.449837 63.07843 C 48.65136 64.384369 51.071083 65.960602 53.692719 67.849487 C 53.793678 67.921143 53.813217 68.061188 53.74157 68.171906 C 53.702492 68.220764 53.630844 68.263092 53.562454 68.263092 C 53.510345 68.263092 53.461494 68.253326 53.422417 68.220764 C 52.927399 67.869019 52.445404 67.530334 51.97319 67.198151 L 51.97319 67.198151 C 56.887535 70.962891 61.254761 75.434326 60.694611 83.911499 C 59.515686 101.49765 54.037933 102.826385 52.403069 102.826385 C 52.113228 102.826385 51.943878 102.784027 51.943878 102.784027 L 51.943878 102.784027 C 51.943878 102.784027 52.31514 103.008759 53.881607 103.008759 C 56.226425 103.008759 61.254761 102.510468 71.74131 100.022369 C 92.45388 95.121033 64.830612 76.085663 64.830612 61.352386 C 64.830612 47.267181 76.606812 37.816284 86.497391 37.816284 C 86.953323 37.816284 87.406006 37.835815 87.855431 37.878143 C 97.980484 38.790009 87.392982 40.177368 80.482277 57.213135 C 73.581345 74.248901 96.59314 89.897308 80.019829 102.324829 C 71.6371 108.613525 58.665688 111.130951 46.10463 111.130951 C 33.826893 111.130951 21.943222 108.724243 15.120449 105.086517 C 1.318584 97.723145 17.882126 38.80304 17.882126 38.80304 L 18.064499 38.711853 C 16.064892 31.107483 16.677147 16.019226 17.442471 15.247375 C 17.517376 15.172485 17.631359 15.136658 17.777912 15.136658 C 19.39323 15.136658 25.001255 19.262878 26.815235 19.262878 C 26.899906 19.262878 26.978069 19.253113 27.043201 19.233582 C 28.68132 18.761353 37.350632 13.137054 37.350632 13.137054 C 37.350632 13.137054 31.967323 6.578064 33.129963 6.578064 Z"/>
    <path id="Path-copy-57" fill="none" stroke="#ffffff" stroke-width="8" stroke-linejoin="round" d="M 33.129963 6.578064 C 42.584145 6.578064 53.279121 15.478607 53.279121 15.478607 C 54.23333 16.442596 55.008423 17.686646 55.601143 19.135864 L 58.896919 14.615601 C 58.945763 14.550446 59.010902 14.524414 59.072777 14.524414 C 59.232353 14.524414 59.382164 14.703522 59.268181 14.885895 L 56.092903 19.233582 C 56.092903 19.285675 56.073364 19.334534 56.044052 19.376862 L 55.812828 19.686249 C 56.053825 20.379944 56.262253 21.09314 56.415314 21.816132 C 56.434853 21.7966 56.454399 21.786835 56.473938 21.777069 L 64.791527 14.241058 C 64.843636 14.195465 64.899002 14.175934 64.951111 14.175934 C 65.133484 14.175934 65.283287 14.416931 65.104172 14.573242 L 56.526047 22.360016 C 56.656311 23.092773 56.747498 23.825531 56.806122 24.558258 L 65.88578 20.067291 L 65.905319 20.057526 C 65.941139 20.044495 65.976967 20.037994 66.006279 20.037994 C 66.234245 20.037994 66.335205 20.373413 66.087692 20.480896 L 56.975464 24.991425 C 56.955925 25.030487 56.916847 25.059814 56.877769 25.079346 L 56.835426 25.102142 C 56.965698 27.883362 56.604202 30.654816 55.780258 33.305756 C 55.871445 35.66684 54.184479 40.138306 50.338326 42.365875 C 48.133545 43.652252 45.678001 44.446899 44.323212 44.446899 C 44.108276 44.446899 43.922638 44.427368 43.769577 44.38501 C 43.668617 44.407806 43.567665 44.427368 43.466705 44.437134 L 43.427628 44.437134 C 43.336433 44.437134 43.245247 44.375244 43.215942 44.287323 C 42.382225 44.456665 41.538742 44.586945 40.665947 44.707428 C 40.652924 44.779083 40.613838 44.837708 40.545448 44.880035 C 40.512886 45.000519 40.473801 45.121033 40.444496 45.251312 C 37.620941 54.510071 41.408478 59.10202 46.449837 63.07843 C 48.65136 64.384369 51.071083 65.960602 53.692719 67.849487 C 53.793678 67.921143 53.813217 68.061188 53.74157 68.171906 C 53.702492 68.220764 53.630844 68.263092 53.562454 68.263092 C 53.510345 68.263092 53.461494 68.253326 53.422417 68.220764 C 52.927399 67.869019 52.445404 67.530334 51.97319 67.198151 L 51.97319 67.198151 C 56.887535 70.962891 61.254761 75.434326 60.694611 83.911499 C 59.515686 101.49765 54.037933 102.826385 52.403069 102.826385 C 52.113228 102.826385 51.943878 102.784027 51.943878 102.784027 L 51.943878 102.784027 C 51.943878 102.784027 52.31514 103.008759 53.881607 103.008759 C 56.226425 103.008759 61.254761 102.510468 71.74131 100.022369 C 92.45388 95.121033 64.830612 76.085663 64.830612 61.352386 C 64.830612 47.267181 76.606812 37.816284 86.497391 37.816284 C 86.953323 37.816284 87.406006 37.835815 87.855431 37.878143 C 97.980484 38.790009 87.392982 40.177368 80.482277 57.213135 C 73.581345 74.248901 96.59314 89.897308 80.019829 102.324829 C 71.6371 108.613525 58.665688 111.130951 46.10463 111.130951 C 33.826893 111.130951 21.943222 108.724243 15.120449 105.086517 C 1.318584 97.723145 17.882126 38.80304 17.882126 38.80304 L 18.064499 38.711853 C 16.064892 31.107483 16.677147 16.019226 17.442471 15.247375 C 17.517376 15.172485 17.631359 15.136658 17.777912 15.136658 C 19.39323 15.136658 25.001255 19.262878 26.815235 19.262878 C 26.899906 19.262878 26.978069 19.253113 27.043201 19.233582 C 28.68132 18.761353 37.350632 13.137054 37.350632 13.137054 C 37.350632 13.137054 31.967323 6.578064 33.129963 6.578064 Z"/>
    <path id="Path-copy-56" fill="#fffbfb" fill-rule="evenodd" stroke="none" d="M 66.139801 78.974365 C 66.152824 78.974365 66.169113 78.990631 66.169113 79.03299 C 66.081177 79.03299 66.110489 78.974365 66.139801 78.974365 Z"/>
    <path id="Path-copy-55" fill="#fffbfb" fill-rule="evenodd" stroke="none" d="M 2.888309 7.395508 L 1.911303 7.98822 C 2.031799 7.577881 2.885056 7.395508 2.888309 7.395508 Z"/>
    <path id="Path-copy-54" fill="#352c39" fill-rule="evenodd" stroke="none" d="M 33.491455 6.581329 C 42.945633 6.581329 53.64061 15.491638 53.64061 15.491638 C 58.291168 20.161743 58.795959 31.654602 52.940422 39.84845 C 51.090622 42.440765 46.319565 44.007233 40.955795 44.720459 C 40.906944 44.893066 40.854836 45.072174 40.805984 45.244781 C 34.357735 66.426331 62.430428 63.202179 61.056107 83.914764 C 59.877182 101.500885 54.399422 102.82962 52.764565 102.82962 C 52.474716 102.82962 52.305367 102.787292 52.305367 102.787292 L 52.305367 102.787292 C 52.305367 102.787292 52.676636 103.011993 54.243103 103.011993 C 56.587921 103.011993 61.616257 102.513733 72.102806 100.025604 C 92.815369 95.124298 65.192101 76.088928 65.192101 61.355652 C 65.192101 47.263947 76.978073 37.819519 86.87191 37.819519 C 87.324585 37.819519 87.770752 37.842316 88.216919 37.881409 C 98.34198 38.793274 87.754471 40.180634 80.843773 57.2164 C 73.942841 74.252136 96.954628 89.900574 80.381317 102.328094 C 72.001846 108.61026 59.023926 111.127686 46.459602 111.127686 C 34.185127 111.127686 22.301456 108.727509 15.481941 105.089783 C 1.680079 97.726379 18.243618 38.806305 18.243618 38.806305 L 18.425991 38.724884 C 16.426384 31.110748 17.038643 16.022491 17.803963 15.250641 C 17.878868 15.175751 17.992851 15.139923 18.139404 15.139923 C 19.754723 15.139923 25.362747 19.266144 27.176727 19.266144 C 27.261402 19.266144 27.339561 19.256378 27.404694 19.236847 C 29.042812 18.764618 37.712128 13.14032 37.712128 13.14032 C 37.712128 13.14032 32.328815 6.581329 33.491455 6.581329 Z"/>
    <path id="Path-copy-53" fill="#fffbfb" fill-rule="evenodd" stroke="none" d="M 47.052322 26.893311 C 50.53373 26.893311 55.640221 31.905365 55.640221 31.905365 C 57.027573 32.937744 55.640221 39.496735 50.699821 42.382141 C 48.495041 43.662018 46.036232 44.456665 44.674934 44.456665 C 43.476479 44.456665 43.137779 43.834625 44.590263 42.382141 C 47.706917 39.265503 42.984711 27.64563 46.440063 26.951935 C 46.638725 26.912872 46.843895 26.893311 47.052322 26.893311 Z"/>
    <path id="Path-copy-52" fill="#fffbfb" fill-rule="evenodd" stroke="none" d="M 49.081245 17.045074 C 49.24408 17.045074 49.406914 17.227448 49.273392 17.409821 C 49.253845 17.439148 47.29332 20.53299 49.755379 25.587402 C 49.80423 25.69812 49.765152 25.838165 49.644653 25.896759 C 49.615341 25.906555 49.582771 25.916321 49.543694 25.916321 C 49.462273 25.916321 49.374344 25.867462 49.341782 25.786041 C 46.762482 20.503693 48.80117 17.299103 48.892357 17.159058 C 48.93795 17.077637 49.009598 17.045074 49.081245 17.045074 Z"/>
    <path id="Path-copy-51" fill="#f3a5a5" fill-rule="evenodd" stroke="none" d="M 49.556717 28.635651 C 50.32856 28.635651 50.931046 28.801758 50.931046 28.801758 C 50.931046 28.801758 49.90519 29.814575 49.393883 30.237946 C 49.452507 30.267242 49.494843 30.325867 49.504616 30.397522 L 50.748672 36.653625 C 51.865715 35.881805 52.377014 32.937744 52.487747 31.794647 C 52.504028 31.657867 52.608238 31.592743 52.712456 31.592743 C 52.832954 31.592743 52.950195 31.677399 52.940422 31.83371 C 52.917625 32.025879 52.487747 36.51358 50.680283 37.207275 C 50.527214 37.269135 50.377411 37.288696 50.2276 37.288696 C 48.498299 37.288696 46.63221 34.022217 46.410751 33.621643 C 46.348877 33.520691 46.378189 33.380646 46.479149 33.322021 C 46.514969 33.30249 46.554047 33.292725 46.589874 33.292725 C 46.671288 33.292725 46.749451 33.335052 46.791786 33.409973 C 47.358452 34.41629 48.983543 36.832733 50.201546 36.832733 C 50.237366 36.832733 50.273193 36.829498 50.305763 36.826233 L 49.051933 30.478943 C 49.051933 30.456146 49.051933 30.436615 49.051933 30.417053 C 48.628563 30.335632 47.19236 29.423767 47.19236 29.423767 C 47.869751 28.795227 48.794655 28.635651 49.556717 28.635651 Z"/>
    <path id="Path-copy-50" fill="#fffbfb" fill-rule="evenodd" stroke="none" d="M 33.335133 27.287384 C 36.601593 27.287384 40.200241 29.977417 40.363075 30.107666 C 40.532425 30.237946 40.444496 30.518005 40.223038 30.518005 C 40.170929 30.518005 40.122078 30.50824 40.083 30.469177 C 40.043922 30.449615 36.448532 27.749817 33.325363 27.749817 C 33.012722 27.749817 32.706593 27.775879 32.406975 27.834503 C 31.312725 28.046204 30.449703 28.681244 29.837444 29.713623 C 29.785339 29.798279 29.713692 29.834106 29.642044 29.834106 C 29.485722 29.834106 29.329399 29.664764 29.433617 29.482391 C 30.117519 28.329529 31.09127 27.626068 32.315788 27.385071 C 32.651226 27.316681 32.989925 27.287384 33.335133 27.287384 Z"/>
    <path id="Path-copy-49" fill="#fffbfb" fill-rule="evenodd" stroke="none" d="M 32.716362 56.753937 C 32.739159 56.753937 32.761955 56.757202 32.78801 56.763702 C 32.869427 56.783234 41.046982 58.493011 54.054214 67.852753 C 54.155174 67.924408 54.184479 68.074188 54.103065 68.175171 C 54.06398 68.233795 53.992332 68.266357 53.923943 68.266357 C 53.871841 68.266357 53.82299 68.256592 53.783905 68.223999 C 40.864609 58.932678 32.77824 57.235931 32.700077 57.2164 C 32.393948 57.180573 32.455826 56.753937 32.716362 56.753937 Z"/>
    <path id="Path-copy-48" fill="#352c39" fill-rule="evenodd" stroke="none" d="M 59.431015 14.517883 C 59.597107 14.517883 59.759941 14.706787 59.629669 14.88916 L 53.409386 23.405396 C 53.370308 23.467285 53.301918 23.496582 53.23027 23.506348 L 53.220497 23.506348 C 53.038124 23.506348 52.927399 23.284912 53.038124 23.135101 L 59.245384 14.618835 C 59.297485 14.547211 59.365883 14.517883 59.431015 14.517883 Z"/>
    <path id="Path-copy-47" fill="#352c39" fill-rule="evenodd" stroke="none" d="M 65.306084 14.175934 C 65.491722 14.175934 65.644783 14.420197 65.465668 14.576508 L 54.304977 24.711334 C 54.269157 24.737396 54.220306 24.763458 54.168198 24.763458 C 54.161682 24.763458 54.151917 24.763458 54.145401 24.763458 C 54.138885 24.763458 54.135628 24.763458 54.132378 24.763458 C 53.940231 24.763458 53.845787 24.50943 53.992332 24.369385 L 65.153023 14.234558 C 65.201874 14.19223 65.25724 14.175934 65.306084 14.175934 Z"/>
    <path id="Path-copy-46" fill="#352c39" fill-rule="evenodd" stroke="none" d="M 66.367767 20.037994 C 66.58271 20.037994 66.706467 20.379944 66.449188 20.484161 L 54.82605 26.238739 C 54.796738 26.25827 54.75766 26.268036 54.728348 26.268036 C 54.48735 26.25827 54.405937 25.939117 54.627388 25.828369 L 66.247269 20.070557 C 66.289612 20.04776 66.32869 20.037994 66.367767 20.037994 Z"/>
    <path id="Path-copy-45" fill="#fffbfb" fill-rule="evenodd" stroke="none" d="M 38.936646 32.937744 C 39.219978 32.937744 39.265572 33.341583 38.985497 33.400208 L 30.006794 34.546539 L 29.977482 34.546539 L 29.977482 34.556305 C 29.68438 34.556305 29.655071 34.123169 29.957943 34.093872 L 38.926872 32.937744 C 38.93013 32.937744 38.933388 32.937744 38.936646 32.937744 Z"/>
    <path id="Path-copy-44" fill="#fffbfb" fill-rule="evenodd" stroke="none" d="M 39.428406 34.20459 C 39.675911 34.20459 39.747559 34.592133 39.470741 34.657288 L 28.762737 37.308228 L 28.710629 37.308228 C 28.707371 37.308228 28.704117 37.308228 28.700859 37.308228 C 28.440323 37.308228 28.39473 36.92395 28.652008 36.85553 L 39.360016 34.214355 C 39.382813 34.207855 39.405609 34.20459 39.428406 34.20459 Z"/>
    <path id="Path-copy-43" fill="#fffbfb" fill-rule="evenodd" stroke="none" d="M 39.874573 35.924133 C 40.063461 35.924133 40.206757 36.197693 40.011353 36.344238 L 32.768463 41.756866 C 32.729385 41.789429 32.680534 41.799194 32.628426 41.799194 L 32.618656 41.799194 C 32.397202 41.799194 32.306015 41.515869 32.488388 41.38559 L 39.741051 35.972992 C 39.786644 35.937164 39.832237 35.924133 39.874573 35.924133 Z"/>
    <path id="Path-copy-42" fill="#352c39" fill-rule="evenodd" stroke="none" d="M 56.105927 32.24408 C 56.118958 32.24408 56.131981 32.24408 56.141754 32.24408 C 56.275276 32.276642 56.353439 32.397125 56.3339 32.517639 C 56.314362 32.628357 54.33429 42.71109 43.828201 44.450165 L 43.789116 44.450165 L 43.789116 44.440369 C 43.785858 44.440369 43.7826 44.440369 43.77935 44.440369 C 43.505783 44.440369 43.469963 44.026794 43.756554 43.987701 C 53.943489 42.310516 55.861679 32.527405 55.881218 32.436218 C 55.900757 32.31897 55.998459 32.24408 56.105927 32.24408 Z"/>
    <path id="Path-copy-41" fill="#fffbfb" fill-rule="evenodd" stroke="none" d="M 25.613514 40.418365 C 25.665623 40.418365 25.717728 40.437897 25.769836 40.48349 C 29.769054 44.166809 33.934364 44.990753 36.849106 44.990753 C 39.161354 44.990753 40.688744 44.472961 40.724571 44.45993 C 40.753876 44.450165 40.783188 44.443634 40.809242 44.443634 C 41.043724 44.443634 41.138168 44.80188 40.874374 44.893066 C 40.84507 44.912598 39.24929 45.443451 36.849106 45.443451 C 33.833408 45.443451 29.554111 44.599976 25.457191 40.812439 C 25.284588 40.656097 25.431141 40.418365 25.613514 40.418365 Z"/>
    <path id="Path-copy-40" fill="#fffbfb" fill-rule="evenodd" stroke="none" d="M 57.138298 24.649475 C 57.359756 24.649475 57.47374 24.971863 57.239258 25.092377 L 54.82605 26.238739 C 54.796738 26.25827 54.75766 26.25827 54.728348 26.268036 C 54.48735 26.25827 54.405937 25.939117 54.627388 25.828369 L 57.037346 24.672272 C 57.073166 24.655975 57.108994 24.649475 57.138298 24.649475 Z"/>
    <path id="Path-copy-39" fill="#fffbfb" fill-rule="evenodd" stroke="none" d="M 56.916847 21.770538 C 57.09922 21.770538 57.245773 22.014801 57.066658 22.171112 L 54.304977 24.701569 C 54.269157 24.737396 54.220306 24.763458 54.168198 24.763458 C 54.161682 24.763458 54.151917 24.763458 54.145401 24.763458 L 54.145401 24.763458 C 54.145401 24.763458 54.142143 24.763458 54.142143 24.763458 C 53.940231 24.763458 53.845787 24.50943 53.992332 24.369385 L 56.757271 21.838928 C 56.809372 21.79007 56.864738 21.770538 56.916847 21.770538 Z"/>
    <path id="Path-copy-38" fill="#fffbfb" fill-rule="evenodd" stroke="none" d="M 56.213402 19.012115 C 56.382751 19.012115 56.535812 19.204254 56.405548 19.380127 L 53.409386 23.405396 C 53.370308 23.467285 53.301918 23.506348 53.23027 23.506348 C 53.181419 23.506348 53.129311 23.486816 53.090233 23.45752 C 52.989273 23.376099 52.969734 23.236053 53.038124 23.135101 L 56.031029 19.106567 C 56.086388 19.041443 56.151527 19.012115 56.213402 19.012115 Z"/>
    <path id="Path-copy-37" fill="#f3a5a5" fill-rule="evenodd" stroke="none" d="M 18.885185 17.901581 C 19.924072 17.901581 24.802597 21.317871 24.802597 21.317871 C 24.802597 21.317871 20.689396 24.893707 20.125988 24.893707 C 20.106445 24.893707 20.093418 24.890442 20.083649 24.883942 C 19.741695 24.65271 18.354347 18.666901 18.70607 17.983002 C 18.735378 17.927643 18.793999 17.901581 18.885185 17.901581 Z"/>
    <path id="Path-copy-36" fill="#f3a5a5" fill-rule="evenodd" stroke="none" d="M 36.767685 8.773071 C 37.461365 8.773071 42.753487 9.574219 42.411537 10.267914 C 42.059814 10.961578 39.529366 12.228424 39.529366 12.228424 C 39.529366 12.228424 36.083778 8.773071 36.767685 8.773071 Z"/>
    <path id="Path-copy-35" fill="#fffbfb" fill-rule="evenodd" stroke="none" d="M 70.819672 51.01239 C 71.073692 51.01239 71.148598 51.396667 70.878288 51.471588 C 70.819672 51.481354 69.591896 51.803772 69.914307 53.269287 C 69.943619 53.389771 69.865456 53.510284 69.731934 53.539581 L 69.683083 53.539581 C 69.582123 53.539581 69.490936 53.471191 69.461624 53.370239 C 69.041512 51.471588 70.748024 51.01889 70.75779 51.01889 C 70.780586 51.01239 70.800125 51.01239 70.819672 51.01239 Z"/>
    <path id="Path-copy-34" fill="#fffbfb" fill-rule="evenodd" stroke="none" d="M 74.196861 50.250336 C 74.434601 50.250336 74.506248 50.611816 74.25222 50.696503 C 74.121956 50.729065 72.978859 51.067749 73.288239 52.494171 C 73.320808 52.614685 73.239395 52.748199 73.118896 52.767761 C 73.109123 52.770996 73.09935 52.774261 73.089584 52.774261 C 73.079811 52.774261 73.073303 52.770996 73.066788 52.767761 C 72.959312 52.767761 72.868126 52.696106 72.838821 52.595154 C 72.415451 50.706268 74.121956 50.256836 74.141495 50.256836 C 74.161034 50.250336 74.180573 50.250336 74.196861 50.250336 Z"/>
    <path id="Path-copy-33" fill="#fffbfb" fill-rule="evenodd" stroke="none" d="M 72.356827 47.175995 C 72.610847 47.175995 72.685753 47.560303 72.405678 47.635193 C 72.353569 47.644958 71.119286 47.964111 71.451469 49.432892 C 71.471008 49.553406 71.399361 49.673889 71.269089 49.703186 L 71.220245 49.703186 C 71.119286 49.703186 71.028099 49.631561 70.998787 49.533844 C 70.578674 47.635193 72.275414 47.182526 72.294952 47.182526 C 72.317749 47.175995 72.337288 47.175995 72.356827 47.175995 Z"/>
    <path id="Path-copy-32" fill="#fffbfb" fill-rule="evenodd" stroke="none" d="M 46.094856 66.237427 C 47.283546 66.237427 47.755768 67.344696 47.755768 67.351227 C 47.804619 67.47171 47.746002 67.60199 47.635269 67.654083 C 47.605965 67.663849 47.576653 67.673645 47.544083 67.673645 C 47.456154 67.673645 47.364967 67.611755 47.322632 67.5336 C 47.283546 67.426117 46.948112 66.696625 46.10463 66.696625 C 45.90271 66.696625 45.674744 66.738953 45.414207 66.839905 C 45.388153 66.846436 45.365356 66.849701 45.34256 66.849701 C 45.111336 66.849701 45.007118 66.517517 45.244858 66.406769 C 45.56076 66.28952 45.844093 66.237427 46.094864 66.237427 Z"/>
    <path id="Path-copy-31" fill="#fffbfb" fill-rule="evenodd" stroke="none" d="M 47.482208 69.461548 C 48.664383 69.461548 49.14312 70.559052 49.14312 70.575348 C 49.191971 70.695831 49.133354 70.826111 49.012856 70.878204 C 48.980286 70.888 48.960747 70.897766 48.921669 70.897766 C 48.830475 70.897766 48.749062 70.835876 48.709984 70.757721 C 48.670898 70.650238 48.332207 69.920746 47.485466 69.920746 C 47.283546 69.920746 47.052322 69.963074 46.791786 70.064056 C 46.765732 70.070557 46.742935 70.073822 46.720139 70.073822 C 46.49543 70.073822 46.39447 69.741638 46.63221 69.63089 C 46.948112 69.510406 47.231445 69.461548 47.482208 69.461548 Z"/>
    <path id="Path-copy-30" fill="#fffbfb" fill-rule="evenodd" stroke="none" d="M 44.629341 67.422852 C 45.818039 67.422852 46.29026 68.526886 46.29026 68.536652 C 46.339111 68.657166 46.29026 68.787415 46.169762 68.839539 C 46.137192 68.849304 46.10788 68.85907 46.078575 68.85907 C 45.987389 68.85907 45.896194 68.806946 45.86689 68.719025 C 45.818039 68.611572 45.489113 67.88205 44.642372 67.88205 C 44.440453 67.88205 44.212486 67.924408 43.948692 68.02536 C 43.91613 68.035126 43.886818 68.041626 43.857506 68.041626 C 43.626282 68.041626 43.52858 67.689911 43.77935 67.592224 C 44.095245 67.474976 44.378578 67.422852 44.629341 67.422852 Z"/>
    <path id="Path-copy-29" fill="#fffbfb" fill-rule="evenodd" stroke="none" d="M 18.618137 102.012207 C 18.719097 102.012207 18.820053 102.077332 18.836338 102.217377 C 18.855877 102.347626 19.051277 103.37674 20.25951 103.37674 C 20.344185 103.37674 20.432117 103.370239 20.526562 103.360474 C 20.533073 103.360474 20.539585 103.360474 20.546101 103.360474 C 20.666599 103.360474 20.767555 103.448395 20.777325 103.562378 C 20.787094 103.682892 20.695908 103.79361 20.575409 103.813141 C 20.464684 103.822906 20.363724 103.832703 20.252998 103.832703 C 18.618137 103.832703 18.386913 102.285767 18.386913 102.276001 C 18.364117 102.109894 18.491127 102.012207 18.618137 102.012207 Z"/>
    <path id="Path-copy-28" fill="#fffbfb" fill-rule="evenodd" stroke="none" d="M 15.055317 100.064697 C 15.156273 100.064697 15.253975 100.123322 15.270256 100.256836 C 15.289799 100.387115 15.47543 101.419495 16.680405 101.419495 C 16.768337 101.419495 16.859524 101.412964 16.96048 101.403198 C 16.963737 101.403198 16.970253 101.403198 16.976765 101.403198 C 17.090748 101.403198 17.191708 101.487885 17.211246 101.614899 C 17.221016 101.735382 17.129829 101.842865 17.009331 101.865662 C 16.898605 101.875427 16.787876 101.875427 16.68692 101.885193 C 15.052059 101.885193 14.820835 100.338257 14.820835 100.328491 C 14.798038 100.159149 14.928307 100.064697 15.055317 100.064697 Z"/>
    <path id="Path-copy-27" fill="#fffbfb" fill-rule="evenodd" stroke="none" d="M 14.469112 97.153229 C 14.59938 97.153229 14.700336 97.263947 14.700336 97.38443 C 14.700336 97.44632 14.700336 98.719696 16.19516 98.781555 C 16.494774 98.781555 16.488262 99.234253 16.19516 99.234253 C 16.191902 99.234253 16.188644 99.234253 16.185387 99.234253 L 16.175617 99.234253 C 14.237885 99.162598 14.237885 97.394196 14.237885 97.38443 C 14.247658 97.254181 14.348614 97.153229 14.469112 97.153229 Z"/>
    <path id="Path-copy-26" fill="#fffbfb" fill-rule="evenodd" stroke="none" d="M 15.162788 94.86377 C 15.293053 94.86377 15.390755 94.964722 15.390755 95.094971 C 15.390755 95.143829 15.390755 96.410675 16.879063 96.469299 C 17.168911 96.501862 17.159138 96.921997 16.869293 96.931763 L 16.869293 96.941528 C 14.931561 96.863373 14.931561 95.104767 14.931561 95.085205 C 14.931561 94.964722 15.04229 94.86377 15.162788 94.86377 Z"/>
    <path id="Path-copy-25" fill="#fffbfb" fill-rule="evenodd" stroke="none" d="M 12.492298 93.267975 C 12.534634 93.267975 12.580231 93.281006 12.619308 93.307068 C 12.720268 93.365692 12.759346 93.518738 12.690956 93.616455 C 12.661648 93.668549 11.99728 94.753021 13.241337 95.576965 C 13.433483 95.707245 13.352066 95.997101 13.120842 95.997101 C 13.071991 95.997101 13.032909 95.987305 12.990574 95.967773 C 11.375252 94.893066 12.287128 93.398254 12.300152 93.375458 C 12.342491 93.307068 12.417393 93.267975 12.492298 93.267975 Z"/>
    <path id="Path-copy-24" fill="#fffbfb" fill-rule="evenodd" stroke="none" d="M 12.948235 96.830811 C 13.107815 96.830811 13.264133 97.003418 13.153408 97.182526 C 13.120842 97.234619 12.459732 98.328888 13.703789 99.152832 C 13.895931 99.273315 13.804745 99.563171 13.58329 99.572937 C 13.534439 99.572937 13.495361 99.553406 13.453022 99.533844 C 11.837704 98.468933 12.749577 96.964325 12.759346 96.941528 C 12.808197 96.863373 12.879845 96.830811 12.948235 96.830811 Z"/>
    <path id="Path-copy-23" fill="#fffbfb" fill-rule="evenodd" stroke="none" d="M 17.927719 99.019287 C 18.028675 99.019287 18.126377 99.077911 18.145916 99.211456 C 18.162201 99.344971 18.347832 100.374084 19.552807 100.374084 C 19.640739 100.374084 19.735184 100.370819 19.832886 100.357788 C 19.849167 100.354553 19.862194 100.354553 19.878479 100.354553 C 20.158554 100.354553 20.197636 100.80072 19.881733 100.820251 C 19.780777 100.830017 19.670048 100.839783 19.559322 100.839783 C 17.934231 100.839783 17.693237 99.302643 17.693237 99.283081 C 17.670441 99.113739 17.800709 99.019287 17.927719 99.019287 Z"/>
    <path id="Path-copy-22" fill="#fffbfb" fill-rule="evenodd" stroke="none" d="M 53.510345 70.61441 C 55.340607 70.61441 55.470879 72.304657 55.470879 72.324188 C 55.480644 72.454468 55.379684 72.565186 55.259193 72.565186 L 55.239647 72.565186 C 55.119148 72.565186 55.018196 72.473999 55.008423 72.353485 C 55.008423 72.294891 54.89444 71.076874 53.520119 71.076874 C 53.487549 71.076874 53.454979 71.076874 53.422417 71.076874 L 53.409386 71.076874 C 53.119545 71.067108 53.109772 70.647003 53.39962 70.61441 Z"/>
    <path id="Path-copy-21" fill="#fffbfb" fill-rule="evenodd" stroke="none" d="M 49.947525 68.233795 C 51.12645 68.233795 51.601921 69.334534 51.601921 69.35083 C 51.65403 69.471313 51.592155 69.601593 51.471657 69.650452 C 51.442345 69.660217 51.413033 69.660217 51.38047 69.673248 C 51.292542 69.673248 51.211121 69.611359 51.172043 69.520172 C 51.1297 69.422485 50.791008 68.689728 49.937752 68.689728 C 49.739098 68.689728 49.511124 68.732056 49.253845 68.826508 C 49.224541 68.839539 49.195229 68.846039 49.165916 68.846039 C 49.07473 68.846039 48.990059 68.787415 48.950974 68.696228 C 48.911896 68.575745 48.970512 68.445465 49.091011 68.406372 C 49.410172 68.282623 49.693504 68.233795 49.947525 68.233795 Z"/>
    <path id="Path-copy-20" fill="#fffbfb" fill-rule="evenodd" stroke="none" d="M 50.478363 70.95639 C 52.357475 70.95639 52.477974 72.666138 52.477974 72.685669 C 52.487747 72.806183 52.386787 72.916901 52.266289 72.926666 L 52.256516 72.926666 C 52.126251 72.926666 52.025291 72.83548 52.015526 72.705231 C 52.005753 72.574951 51.895027 71.418823 50.497902 71.418823 L 50.426254 71.418823 C 50.12664 71.418823 50.12664 70.95639 50.426254 70.95639 C 50.445801 70.95639 50.462082 70.95639 50.478363 70.95639 Z"/>
    <path id="Path-copy-19" fill="#fffbfb" fill-rule="evenodd" stroke="none" d="M 53.50383 73.164429 C 53.510345 73.164429 53.520119 73.167664 53.533142 73.167664 C 55.441566 73.509613 55.200569 75.245453 55.200569 75.264984 C 55.187546 75.375702 55.089844 75.457123 54.979111 75.457123 L 54.946548 75.457123 C 54.816277 75.437592 54.728348 75.317078 54.747887 75.196594 C 54.767426 75.066315 54.887924 73.871124 53.451729 73.620361 C 53.178162 73.561737 53.236786 73.164429 53.50383 73.164429 Z"/>
    <path id="Path-copy-18" fill="#fffbfb" fill-rule="evenodd" stroke="none" d="M 74.968697 47.175995 C 75.222717 47.175995 75.297623 47.560303 75.017548 47.635193 C 74.965439 47.644958 73.731155 47.964111 74.053566 49.432892 C 74.082878 49.553406 74.001457 49.673889 73.880959 49.703186 L 73.832108 49.703186 C 73.721382 49.703186 73.630196 49.631561 73.610657 49.533844 C 73.187286 47.635193 74.887276 47.182526 74.906815 47.182526 C 74.929611 47.175995 74.949158 47.175995 74.968697 47.175995 Z"/>
    <path id="Path-copy-17" fill="#fffbfb" fill-rule="evenodd" stroke="none" d="M 75.427887 43.798828 C 75.6754 43.798828 75.747047 44.183105 75.479996 44.24823 C 75.418121 44.267792 74.193604 44.590179 74.516014 46.045929 C 74.545326 46.176208 74.463905 46.296692 74.333641 46.329254 L 74.28479 46.329254 C 74.18383 46.329254 74.092644 46.257629 74.063332 46.146881 C 73.639961 44.257996 75.349731 43.808594 75.359497 43.808594 C 75.382294 43.802063 75.40509 43.798828 75.427887 43.798828 Z"/>
    <path id="Path-copy-16" fill="#fffbfb" fill-rule="evenodd" stroke="none" d="M 77.867149 43.802063 C 78.111404 43.802063 78.196075 44.17334 77.929031 44.24823 C 77.798759 44.290588 76.655663 44.629272 76.974815 46.045929 C 76.994362 46.176208 76.925964 46.296692 76.7957 46.329254 L 76.743591 46.329254 C 76.642639 46.329254 76.544937 46.257629 76.522141 46.146881 C 76.102028 44.257996 77.798759 43.808594 77.818298 43.808594 C 77.834587 43.805328 77.850868 43.802063 77.867149 43.802063 Z"/>
    <path id="Path-copy-15" fill="#fffbfb" fill-rule="evenodd" stroke="none" d="M 70.989014 53.858734 C 71.216988 53.858734 71.31469 54.194183 71.0802 54.304901 C 71.028099 54.324432 69.842659 54.796661 70.34745 56.203552 C 70.386528 56.324066 70.324654 56.454315 70.204155 56.503174 C 70.174843 56.503174 70.155304 56.512939 70.125992 56.512939 C 70.025032 56.512939 69.943619 56.454315 69.904541 56.363129 C 69.26297 54.536133 70.897827 53.871765 70.9076 53.871765 C 70.936913 53.862 70.962959 53.858734 70.989014 53.858734 Z"/>
    <path id="Path-copy-14" fill="#352c39" fill-rule="evenodd" stroke="none" d="M 21.389584 20.070557 C 21.467743 20.070557 21.545906 20.112885 21.588242 20.213837 C 22.965824 22.812683 22.825787 23.125336 22.786705 23.226288 C 22.74437 23.294678 22.675976 23.356567 22.594559 23.376099 C 22.57502 23.385864 22.555481 23.385864 22.532684 23.385864 C 22.353565 23.385864 21.842262 23.19696 19.702618 21.337402 C 19.539783 21.16806 19.686333 20.936829 19.865452 20.936829 C 19.911045 20.936829 19.956638 20.94986 20.002232 20.985687 C 20.835945 21.708679 21.809696 22.49353 22.291687 22.802917 C 22.122341 22.311157 21.64035 21.288544 21.187668 20.422272 C 21.073685 20.236633 21.233261 20.070557 21.389584 20.070557 Z"/>
    <path id="Path-copy-13" fill="#352c39" fill-rule="evenodd" stroke="none" d="M 40.125336 9.58075 C 40.193726 9.58075 40.262115 9.610046 40.314224 9.684967 C 40.473801 9.987823 41.027443 10.990875 41.027443 11.332855 C 41.027443 11.443573 40.965561 11.53476 40.874374 11.583618 C 40.84507 11.603149 40.805984 11.612915 40.773422 11.612915 C 40.604073 11.612915 40.213272 11.414246 38.878021 10.118103 C 38.786835 10.036682 38.777069 9.886871 38.864998 9.795685 C 38.913849 9.750092 38.975723 9.727295 39.037605 9.727295 C 39.096222 9.727295 39.154846 9.746826 39.197182 9.785919 C 39.601013 10.176727 40.060204 10.590302 40.392387 10.860626 C 40.262115 10.580536 40.083 10.228821 39.910393 9.916168 C 39.822464 9.737061 39.969017 9.58075 40.125336 9.58075 Z"/>
    <path id="Path-copy-12" fill="#fffbfb" fill-rule="evenodd" stroke="none" d="M 36.65696 15.341827 C 37.099869 15.341827 37.972664 15.631683 38.184349 16.745453 C 38.213661 16.878998 38.122475 16.999481 38.001976 17.019043 L 37.962891 17.019043 C 37.852165 17.019043 37.760979 16.937622 37.731667 16.836639 C 37.53952 15.823822 36.696037 15.79126 36.65696 15.79126 C 36.354088 15.79126 36.354088 15.341827 36.65696 15.341827 Z"/>
    <path id="Path-copy-11" fill="#fffbfb" fill-rule="evenodd" stroke="none" d="M 35.963287 17.178619 C 36.406197 17.178619 37.288757 17.47171 37.500443 18.595276 C 37.519981 18.715759 37.438568 18.836273 37.308296 18.855804 L 37.269218 18.855804 C 37.158493 18.855804 37.067307 18.787415 37.04776 18.676697 C 36.858871 17.660583 36.002365 17.641052 35.963287 17.641052 C 35.683212 17.621521 35.683212 17.198151 35.963287 17.178619 Z"/>
    <path id="Path-copy-10" fill="#fffbfb" fill-rule="evenodd" stroke="none" d="M 33.341648 17.019043 C 33.34816 17.019043 33.354671 17.019043 33.361187 17.019043 C 33.794327 17.019043 34.676888 17.318634 34.888573 18.435699 C 34.908119 18.565948 34.829956 18.686462 34.709457 18.705994 L 34.657349 18.705994 C 34.556396 18.705994 34.455437 18.624573 34.435898 18.523621 C 34.247009 17.510803 33.393753 17.481476 33.361191 17.481476 C 33.351421 17.481476 33.344906 17.481476 33.335136 17.481476 C 33.035522 17.481476 33.038776 17.019043 33.341652 17.019043 Z"/>
    <path id="Path-copy-9" fill="#fffbfb" fill-rule="evenodd" stroke="none" d="M 35.813477 19.328033 C 36.256386 19.328033 37.129181 19.621124 37.340866 20.74469 C 37.370178 20.865173 37.278992 20.985687 37.158493 21.005219 L 37.119408 21.005219 C 37.008682 21.005219 36.917496 20.927063 36.888184 20.826111 C 36.696037 19.810028 35.852554 19.790466 35.813477 19.790466 C 35.530144 19.761169 35.530144 19.347565 35.813477 19.328033 Z"/>
    <path id="Path-copy-8" fill="#fffbfb" fill-rule="evenodd" stroke="none" d="M 33.263485 18.705994 C 33.27 18.705994 33.276512 18.705994 33.283028 18.705994 C 33.71291 18.705994 34.598732 19.005615 34.807159 20.12265 C 34.839722 20.25293 34.748535 20.373413 34.628036 20.392975 L 34.588959 20.392975 C 34.478233 20.392975 34.387047 20.311554 34.357735 20.213837 C 34.165588 19.197754 33.322105 19.168457 33.283028 19.168457 C 33.273254 19.168457 33.263485 19.168457 33.253716 19.168457 C 32.957355 19.168457 32.960613 18.705994 33.263485 18.705994 Z"/>
    <path id="Path-copy-7" fill="#fffbfb" fill-rule="evenodd" stroke="none" d="M 17.7486 51.49765 C 17.950516 51.49765 18.074268 51.807007 17.852814 51.934021 C 16.95071 52.425781 17.191708 53.23996 17.201477 53.279053 C 17.240555 53.399536 17.17868 53.529816 17.058182 53.568878 C 17.028873 53.581909 17.009331 53.581909 16.980022 53.581909 C 16.879063 53.581909 16.797646 53.52005 16.768337 53.428864 C 16.6283 53.008728 16.6283 52.074066 17.631359 51.530212 C 17.673698 51.507416 17.712776 51.49765 17.7486 51.49765 Z"/>
    <path id="Path-copy-6" fill="#fffbfb" fill-rule="evenodd" stroke="none" d="M 18.77446 53.441895 C 18.950321 53.441895 19.09687 53.669861 18.937294 53.832672 C 18.165459 54.513336 18.566032 55.259125 18.585571 55.298187 C 18.657219 55.399139 18.618137 55.539185 18.507412 55.61084 C 18.474842 55.630371 18.435764 55.640137 18.396683 55.640137 C 18.315266 55.640137 18.233849 55.597809 18.194767 55.529419 C 17.973312 55.148376 17.771397 54.243042 18.637676 53.490723 C 18.680016 53.454895 18.728867 53.441895 18.77446 53.441895 Z"/>
    <path id="Path-copy-5" fill="#fffbfb" fill-rule="evenodd" stroke="none" d="M 16.25378 54.806427 C 16.439411 54.806427 16.589218 55.060455 16.406845 55.216766 C 15.631752 55.900696 16.045349 56.643219 16.064892 56.672516 C 16.126766 56.783234 16.084431 56.926544 15.973701 56.985168 C 15.944393 57.0047 15.905312 57.024231 15.862976 57.024231 C 15.784817 57.024231 15.703396 56.975403 15.664318 56.903748 C 15.442863 56.532471 15.240948 55.620605 16.10397 54.865051 C 16.152821 54.822723 16.204929 54.806427 16.25378 54.806427 Z"/>
    <path id="Path-copy-4" fill="#fffbfb" fill-rule="evenodd" stroke="none" d="M 15.628494 57.965424 C 15.810867 57.965424 15.954163 58.203156 15.794586 58.362732 C 15.009724 59.043396 15.433094 59.789185 15.442863 59.818481 C 15.53405 59.968292 15.423321 60.170197 15.250717 60.170197 C 15.172558 60.170197 15.091141 60.118103 15.052059 60.049713 C 14.830605 59.678436 14.628689 58.773102 15.481941 58.020782 C 15.530792 57.98172 15.579643 57.965424 15.628494 57.965424 Z"/>
    <path id="Path-copy-3" fill="#fffbfb" fill-rule="evenodd" stroke="none" d="M 16.651096 59.551453 C 16.836727 59.551453 16.989792 59.811981 16.787876 59.968292 C 16.016041 60.652191 16.426384 61.394714 16.445923 61.433807 C 16.507801 61.53476 16.465466 61.674805 16.367764 61.74646 C 16.325424 61.765991 16.286346 61.775757 16.247265 61.775757 C 16.165848 61.775757 16.084431 61.736664 16.045349 61.665039 C 15.823895 61.283997 15.631752 60.381897 16.488262 59.626343 C 16.540367 59.570984 16.59573 59.551453 16.651096 59.551453 Z"/>
    <path id="Path-copy-2" fill="#fffbfb" fill-rule="evenodd" stroke="none" d="M 18.097069 57.034027 C 18.279442 57.034027 18.425991 57.278259 18.243618 57.437836 C 17.471783 58.121735 17.882126 58.864288 17.904922 58.903351 C 17.963543 59.004303 17.934231 59.144348 17.823505 59.216003 C 17.784424 59.235535 17.742088 59.2453 17.703007 59.2453 C 17.62159 59.2453 17.54343 59.206238 17.501091 59.134583 C 17.279636 58.75354 17.090748 57.848175 17.944004 57.095886 C 17.992851 57.053558 18.04496 57.034027 18.097069 57.034027 Z"/>
    <path id="Path-copy" fill="#fffbfb" fill-rule="evenodd" stroke="none" d="M 38.324387 17.849487 C 38.363464 17.849487 38.40255 17.859253 38.444885 17.88205 C 38.82592 18.09375 39.457718 18.774384 39.096222 19.862122 C 39.06691 19.950043 38.975723 20.021698 38.878021 20.021698 C 38.855225 20.021698 38.835686 20.011932 38.806374 20.002167 C 38.685883 19.959808 38.624001 19.829559 38.666336 19.709045 C 38.985497 18.735291 38.252739 18.30542 38.223427 18.282623 C 37.995461 18.155609 38.115959 17.849487 38.324387 17.849487 Z"/>
</svg>
